<?xml version="1.0" standalone="no"?>
<!DOCTYPE svg PUBLIC "-//W3C//DTD SVG 20010904//EN"
 "http://www.w3.org/TR/2001/REC-SVG-20010904/DTD/svg10.dtd">
<svg version="1.0" xmlns="http://www.w3.org/2000/svg"
 width="700.000000pt" height="700.000000pt" viewBox="0 0 700.000000 700.000000"
 preserveAspectRatio="xMidYMid meet">
<metadata>
Created by potrace 1.11, written by Peter Selinger 2001-2013
</metadata>
<g transform="translate(0.000000,700.000000) scale(0.100000,-0.100000)"
fill="#000000" stroke="none">
<path d="M3720 6840 c-69 -27 -217 -83 -330 -125 -113 -41 -214 -80 -225 -85
-11 -5 -182 -68 -379 -142 -390 -144 -373 -135 -521 -276 -80 -77 -319 -301
-385 -362 -19 -18 -93 -88 -165 -155 -71 -68 -143 -135 -160 -151 -16 -15 -86
-80 -155 -144 -190 -178 -286 -266 -338 -312 -41 -36 -154 -231 -352 -603 -29
-55 -67 -127 -85 -160 -18 -33 -52 -96 -75 -140 -23 -44 -53 -98 -65 -120 -12
-22 -46 -85 -75 -140 -93 -176 -142 -268 -182 -343 -36 -67 -39 -76 -28 -102
11 -27 9 -208 -5 -405 -2 -33 -7 -121 -10 -196 -3 -75 -7 -176 -10 -225 -7
-149 -15 -303 -20 -419 -3 -60 -7 -153 -10 -205 -2 -52 -7 -160 -11 -240 -14
-273 -6 -392 40 -615 35 -170 122 -364 225 -500 37 -47 162 -163 219 -202 279
-190 643 -249 1232 -198 25 2 88 7 140 10 52 3 115 7 140 10 25 2 95 7 155 10
61 3 130 8 155 10 25 2 88 7 140 10 52 3 124 8 160 11 86 6 163 11 290 19 58
3 125 7 150 10 25 2 88 7 140 10 52 3 120 8 150 10 30 2 96 7 145 10 50 3 119
8 155 10 134 10 217 15 285 20 39 3 108 7 155 10 112 7 221 14 295 20 33 3 98
7 145 10 112 7 222 14 290 20 30 2 96 6 145 10 50 3 119 8 155 10 188 13 240
16 290 20 30 2 102 7 160 10 58 3 125 8 150 10 25 2 92 7 150 10 58 4 121 9
140 10 19 2 87 6 150 10 63 4 118 10 121 13 4 4 9 50 13 102 3 52 8 124 11
160 2 36 7 101 10 145 3 44 7 100 10 125 2 25 7 81 10 125 3 44 7 107 10 140
3 33 7 85 10 115 2 30 7 98 10 150 4 52 8 111 10 130 2 19 6 78 10 130 4 52 8
111 10 130 2 19 6 73 9 120 4 47 8 110 11 140 2 30 7 87 10 125 3 39 7 97 10
130 2 33 7 94 10 135 3 41 7 100 10 130 2 30 7 87 10 125 10 138 15 211 20
270 3 33 7 92 10 130 3 39 7 97 10 130 9 108 18 223 30 390 3 39 7 102 10 140
3 39 8 97 10 130 3 33 7 89 10 125 3 36 7 94 10 130 3 36 7 94 10 130 7 87 13
166 20 275 3 50 8 104 10 120 2 17 7 75 10 130 4 55 9 116 10 135 26 271 26
592 0 715 -9 44 -18 91 -21 105 -48 257 -225 518 -450 662 -109 70 -300 147
-439 179 -27 6 -59 13 -70 16 -26 6 -435 11 -1248 14 -356 1 -650 6 -653 10
-8 14 -20 10 -154 -41z"/>
</g>
</svg>
